<?xml version="1.0" encoding="UTF-8"?>
<svg id="Livello_1" data-name="Livello 1" xmlns="http://www.w3.org/2000/svg" viewBox="0 0 651.61 800">
  <defs>
    <style>
      .cls-1 {
        stroke-width: 0px;
      }
    </style>
  </defs>
  <path class="cls-1" d="m518.55,800H133.03c-32.84-.04-59.45-26.66-59.48-59.5V128.64c0-13.93,11.29-25.22,25.22-25.22s25.22,11.29,25.22,25.22v611.8c.01,4.99,4.04,9.03,9.03,9.06h385.52c4.99-.03,9.02-4.07,9.03-9.06V128.64c0-13.93,11.29-25.22,25.22-25.22s25.22,11.29,25.22,25.22v611.8c0,32.86-26.62,59.51-59.48,59.55Z"/>
  <path class="cls-1" d="m239.63,653.73c-13.93,0-25.22-11.29-25.22-25.22v-353.13c0-13.93,11.29-25.22,25.22-25.22s25.22,11.29,25.22,25.22v353.13c0,13.93-11.29,25.22-25.22,25.22Z"/>
  <path class="cls-1" d="m411.98,653.73c-13.93,0-25.22-11.29-25.22-25.22v-353.13c0-13.93,11.29-25.22,25.22-25.22s25.22,11.29,25.22,25.22v353.13c0,13.93-11.29,25.22-25.22,25.22Z"/>
  <path class="cls-1" d="m626.38,153.86H25.22c-13.93,0-25.22-11.29-25.22-25.22s11.29-25.22,25.22-25.22h601.16c13.93,0,25.22,11.29,25.22,25.22s-11.29,25.22-25.22,25.22Z"/>
  <path class="cls-1" d="m424.59,50.45h-199.7c-13.93,0-25.22-11.29-25.22-25.22S210.97,0,224.9,0h199.7c13.93,0,25.22,11.29,25.22,25.22s-11.29,25.22-25.22,25.22Z"/>
</svg>