<?xml version="1.0" encoding="utf-8"?>
<!-- Generator: Adobe Illustrator 28.0.0, SVG Export Plug-In . SVG Version: 6.00 Build 0)  -->
<svg version="1.1" id="Livello_2_00000067233928060370252140000015771237224030805136_"
	 xmlns="http://www.w3.org/2000/svg" xmlns:xlink="http://www.w3.org/1999/xlink" x="0px" y="0px" viewBox="0 0 435 197.8"
	 style="enable-background:new 0 0 435 197.8;" xml:space="preserve">
<style type="text/css">
	.st0{fill:#081A23;stroke:#FFFFFF;stroke-miterlimit:10;}
	.st1{fill:#FFFBF8;}
	.st2{fill:#C4E3EA;}
	.st3{fill:#081A23;}
	.st4{fill:#086D79;}
	.st5{fill:#13838E;}
	.st6{fill:#13364A;}
	.st7{fill:none;stroke:#FFFFFF;stroke-miterlimit:10;}
	.st8{fill:#13364A;stroke:#FFFFFF;stroke-miterlimit:10;}
	.st9{fill:#252332;stroke:#FFFFFF;stroke-miterlimit:10;}
	.st10{fill:#BC633A;stroke:#FFFFFF;stroke-miterlimit:10;}
	.st11{enable-background:new    ;}
	.st12{fill:#252332;}
</style>
<g id="Livello_1-2">
	<path class="st0" d="M242.7,89.3c-1.9-5.7-9.8-16.8-23.2-16.9c-11.2-0.1-20.3,8.2-23.2,16.9l0,0c0,0.1-0.1,0.2-0.1,0.2
		c-0.2,0.9-0.7,1.7-1.3,2.2c-2.9,3.5-9.2,4.6-13.2,4.7c1.1,0.6,2.3,1.2,3.4,1.7c2.5,1.1,5,2.2,7.5,3.4c0.9,0.5,1.9,0.9,2.8,1.5
		c0.4,0.3,0.9,0.7,1.1,1.2c0,0,0,0,0,0c5.2,15.4,15.1,15.5,23,16.1c10,0.8,19.1-9.4,22.1-15.5c2.1-4.3,20.5-8.5,20.5-8.5
		S243.9,92.9,242.7,89.3L242.7,89.3z"/>
	<g>
		<path class="st1" d="M199.5,87.2c0.3-0.6,0.9-1.6,0.9-1.6c3.3-5.5,8.9-9.4,15.3-10.5c0,0,0.4-0.1,0.9-0.1
			c16.7-2.1,30,14.3,23.2,30.1c-2.5,5.7-8,10.5-14,12.1C207.7,122.2,191,104.6,199.5,87.2L199.5,87.2z"/>
		<g>
			<path class="st2" d="M215.7,75.2c0.3-0.1,0.6-0.1,0.9-0.1"/>
			<g>
				<path class="st3" d="M213.9,81.6c0.3-0.1,1.2-0.3,2-0.4c2.1-0.3,3.9-0.4,6-0.1c0.2,0,0.8,0.1,1,0.1c2.5,0.5,5.6,2.2,7.4,3.9
					c0.3,0.2,0.5,0.6,0.7,0.9c1,1.1,2.5,3.4,3.1,4.8c0.1,0.3,0.3,0.8,0.4,1.1c0.5,1.6,0.8,4.8,0.8,4.8s0,1.5-0.1,2.3
					c-0.1,0.4-0.2,0.8-0.2,1.1c-1.1,4.7-4.4,8.9-8.9,10.8c-2.5,1.1-5.4,1.4-8.1,1.2c-0.4,0-1-0.1-1.5-0.1c-4.3-0.7-8.7-4.1-10.8-7.9
					c-0.1-0.2-0.3-0.4-0.4-0.6c-1.4-2.8-1.6-4.8-1.6-4.8s0-1.4,0-1.2c0,0.2,0.1-4.3,0.9-6.3c0.1-0.3,0.4-1.1,0.4-1.1
					s0.2-0.4,0.2-0.6s1.4-2.2,1.7-2.5c0.7-0.8,2.1-2.2,2.1-2.2c0.2-0.2,0.4-0.3,0.4-0.3c2.3-1.7,2.5-1.9,2.7-2"/>
				<path class="st4" d="M232.2,90.8c-5.7-3.9-12.8-6.7-19.8-4.8c-0.2,0.1-1.3,0.6-1.4,0.6c-0.9-0.2,3.5-2.7,4.1-3
					c1-0.4,3-0.7,3.1-1.2C224.3,82,229.7,85.3,232.2,90.8L232.2,90.8z"/>
				<g>
					<path class="st5" d="M218.3,82.4c-0.2,0.6-2.1,0.8-3.1,1.2c-0.5,0.2-5,2.8-4.1,3c0.1,0,1.2-0.6,1.4-0.6c7-1.9,14,0.9,19.8,4.8
						c6.3,14.1-10.6,26-22,16.6C199.9,98.9,206.3,83.3,218.3,82.4L218.3,82.4z"/>
					<path class="st3" d="M218.5,89.7c7.7-0.8,10.5,9.1,4.4,12.6c-5.4,3.1-11.6-1.9-10-7.8C213.5,92.2,216.2,90,218.5,89.7
						L218.5,89.7z"/>
					<path class="st1" d="M210.3,86.7c3.7-0.5,1.7,5.2-1.6,3.9C207.1,90,208.4,87,210.3,86.7z"/>
					<path class="st1" d="M207.5,90.9c1-0.2,4.3,1.7,2.6,2.6C208.7,94.3,205.2,91.4,207.5,90.9z"/>
					<path class="st1" d="M207.2,93.8c0.5-0.1,3,0.8,2.4,1.8C208.7,97.1,204.9,94.2,207.2,93.8z"/>
				</g>
			</g>
		</g>
	</g>
	<g>
		<g>
			<g>
				<path class="st6" d="M69.9,100.2c0,0.1,0,0.2,0,0.3c0.5,4.7,4.5,8.1,9.2,7.5c24.6-3,64.1-11,80.7-9.8
					c39.8,2.8,48.8,44.6,15.7,59.4c-17.4,7.8-73.4,8.9-96.3,12c-2,0.6,1.3,4.7-0.3,9.5c-2,5.9-7.4,6.1-13,4
					c-3.4-1.3-59.7-30.8-62.3-32.9c-3.3-2.7-4.6-6-2.7-9.7c1.4-2.9,44.9-36.6,53.4-44.9c0.7-0.7,1.4-1.2,2.3-1.6
					C62.4,91.5,68.8,94.8,69.9,100.2L69.9,100.2z"/>
				<path class="st7" d="M69.9,100.2c0,0.1,0,0.2,0,0.3c0.5,4.7,4.5,8.1,9.2,7.5c24.6-3,64.1-11,80.7-9.8
					c39.8,2.8,48.8,44.6,15.7,59.4c-17.4,7.8-73.4,8.9-96.3,12c-2,0.6,1.3,4.7-0.3,9.5c-2,5.9-7.4,6.1-13,4
					c-3.4-1.3-59.7-30.8-62.3-32.9c-3.3-2.7-4.6-6-2.7-9.7c1.4-2.9,44.9-36.6,53.4-44.9c0.7-0.7,1.4-1.2,2.3-1.6
					C62.4,91.5,68.8,94.8,69.9,100.2L69.9,100.2z"/>
				<path class="st6" d="M69.9,100.2c0,0.1,0,0.2,0,0.3c0.5,4.7,4.5,8.1,9.2,7.5c24.6-3,64.1-11,80.7-9.8
					c39.8,2.8,48.8,44.6,15.7,59.4c-17.4,7.8-73.4,8.9-96.3,12c-2,0.6,1.3,4.7-0.3,9.5c-2,5.9-7.4,6.1-13,4
					c-3.4-1.3-59.7-30.8-62.3-32.9c-3.3-2.7-4.6-6-2.7-9.7c1.4-2.9,44.9-36.6,53.4-44.9c0.7-0.7,1.4-1.2,2.3-1.6
					C62.4,91.5,68.8,94.8,69.9,100.2L69.9,100.2z"/>
			</g>
			<path class="st8" d="M367.8,100.7c-2.9-5-1.2-10.9-2.1-11.5c-23,1.6-66.5,11.2-86.6,10c-45.3-2.8-48.8-53.2-7.7-62.9
				c13.3-3.1,52.1-4.7,69.7-6.5c5.2-0.5,10.5-0.8,15.7-1.5c0.9-0.9-2.5-16.6,9.5-15c3.6,0.5,53.4,30,62.2,32.9
				c6.6,4,8.5,6.8,3.9,12.7c-2.1,2.7-49.6,44.4-53.1,45.7C374.7,106.4,369.9,104.3,367.8,100.7L367.8,100.7z"/>
		</g>
		<g>
			<path class="st9" d="M319,103.7c-6.4,42.2-44.2,88.2-88.1,93.3c-29.8,3.5-53-4.5-78.1-19.5c-1.6-0.9-3.4-1.8-4.7-3
				c5.9-1.1,15.3-1.3,20.7-2.5c62.4,34,119.1-2.7,136.7-65.9C310,105.5,314.6,104.5,319,103.7z"/>
			<path class="st9" d="M289.6,22.3c0,0.3,0.1,0.9-0.2,1c-1.8,0.4-15.6,0.8-20.7,2c-60.8-33.5-119.5,4.7-135.2,66.4
				c-4.6,0.8-9.4,1.6-14,2.5c6.2-43,47.5-90.1,92.1-93.8C254.6-3.3,281.8,20.2,289.6,22.3z"/>
			<path class="st10" d="M305.6,106.2c-17.6,63.2-74.3,99.8-136.7,65.9c8-1.8,17.5-6.4,23.5-12c39.8,19.3,80.6-13.9,92.3-51.4
				C291.5,107.9,298.7,107.3,305.6,106.2L305.6,106.2z"/>
			<path class="st10" d="M268.6,25.3c-8,2.8-16.6,5.5-23,11.5c-41-16.6-77.9,14.1-91.3,51.4c-3.2,0.2-15.5,2.6-21,3.5
				C149.2,30,207.8-8.2,268.6,25.3z"/>
			<path class="st9" d="M284.6,108.7c-11.7,37.5-52.5,70.7-92.3,51.4c1.6-1.5,2.1-2.6,3-3.5c1.6-1.7,3.2-3.4,4.2-5.5
				c30.4,6.1,47.1-5.4,64.1-28.9c3-4.2,5.7-8.5,8.2-13C276.2,109.4,280.3,109.1,284.6,108.7L284.6,108.7z"/>
			<g class="st11">
				<path class="st12" d="M158.7,75.8l-2.5-1.6l1.2-1.8l-9.8-6.3l-1.2,1.8l-2.5-1.6l4.4-6.8c1-1.5,1.8-2.6,2.4-3.2
					c0.6-0.6,1.5-1,2.5-1.1c1-0.1,2,0.1,2.9,0.7c1.4,0.9,2,2.3,1.7,4.1c1.8-1.3,3.6-1.5,5.3-0.4c1,0.6,1.6,1.5,2,2.5
					c0.3,1,0.4,2,0.1,3.1c-0.3,1-1,2.3-2,3.9L158.7,75.8z M153.4,64.3l0.7-1.1c0.5-0.8,0.7-1.4,0.7-1.9s-0.4-1-1-1.4
					c-0.6-0.4-1.1-0.5-1.6-0.3c-0.5,0.2-1,0.7-1.5,1.6l-0.6,1L153.4,64.3z M159.9,68.5l0.7-1.1c0.6-1,0.9-1.8,0.9-2.3
					c0-0.6-0.4-1.1-1.1-1.6c-0.8-0.5-1.4-0.6-2-0.4c-0.6,0.2-1.2,0.8-1.8,1.7l-0.7,1.1L159.9,68.5z"/>
			</g>
			<g class="st11">
				<path class="st12" d="M171.5,56.8l-2.1-2.1l1.8-1.8l-8.1-8.4l-1.8,1.8l-2.1-2.1l7-6.7l2.1,2.1l-1.9,1.8l8.1,8.4l3.8-3.6
					l-3.8-3.9l2.5-2.4l5.9,6.1L171.5,56.8z"/>
			</g>
			<g class="st11">
				<path class="st12" d="M185.4,44.1l-1.6-2.5l2.3-1.4l-6.3-9.9l-2.3,1.4l-1.6-2.5l8.4-5.3l1.6,2.5l-2.3,1.4l6.3,9.9l2.3-1.4
					l1.6,2.5L185.4,44.1z"/>
			</g>
			<g class="st11">
				<path class="st12" d="M196.1,36.8l-0.9-2.9l2.3-0.7L194.1,22l-2.3,0.7l-0.9-2.9l7.1-2.1l9.4,8.7l-2.3-7.7l-2.2,0.7l-0.9-2.9
					l7.6-2.3l0.9,2.9l-2.4,0.7l4.3,14.2l-3.8,1.1l-11.1-10.3l2.9,9.6l2.1-0.6l0.9,2.9L196.1,36.8z"/>
			</g>
			<g class="st11">
				<path class="st12" d="M217.9,30.5l0.3-3l2.4,0.2l1.2-11.6l-2.4-0.2l0.3-3l9.2,0.9l-0.3,3l-2.2-0.2l-1.2,11.6l2,0.2l-0.3,3
					L217.9,30.5z M228.3,31.5l0.3-3l2.1,0.2l-4.7-6.8l6.3-4.8l-2.1-0.2l0.3-3l8.6,0.9l-0.3,3l-2.1-0.2l-5.4,4.3l5.1,7.4l1.8,0.2
					l-0.3,3L228.3,31.5z"/>
			</g>
		</g>
	</g>
	<g class="st11">
		<path class="st12" d="M230.1,164.8l2.9-0.5l1,6.1l-2.9,0.5c-1.2-2.1-2.8-2.9-4.9-2.6c-1.7,0.3-2.9,1.1-3.6,2.4
			c-0.7,1.3-0.9,2.8-0.6,4.4c0.3,1.7,1,3,2.1,3.9c1.1,0.9,2.4,1.2,3.8,1c1.2-0.2,2.1-0.8,2.9-1.7s1.1-2.1,1.2-3.6l3.7,1
			c-0.6,4.3-3.1,6.8-7.6,7.5c-3.1,0.5-5.6,0.1-7.5-1.3c-1.9-1.4-3-3.4-3.5-6c-0.3-1.8-0.2-3.5,0.4-5c0.6-1.5,1.5-2.7,2.8-3.7
			c1.3-0.9,2.8-1.5,4.4-1.8c2.1-0.4,3.9-0.1,5.5,0.7L230.1,164.8z"/>
	</g>
	<g class="st11">
		<path class="st12" d="M243.1,179.5l-1.3-2.7l2-1l-5.2-10.5l-2,1l-1.3-2.7l7.6-3.8l1.3,2.7l-1.7,0.8l1.7,3.5l4.3-2.1l-1.7-3.5
			l-1.6,0.8l-1.3-2.7l7.6-3.8l1.3,2.7l-2,1l5.2,10.5l2-1l1.3,2.7l-7.6,3.8l-1.3-2.7l1.6-0.8l-2.1-4.3l-4.3,2.1l2.1,4.3l1.7-0.8
			l1.3,2.7L243.1,179.5z"/>
	</g>
	<g class="st11">
		<path class="st12" d="M277.9,152l2.1,2.1l-6.1,6.1l-2.1-2.1l1.6-1.6l-2.7-1.6l-3.2,3.2l1.5,2.8l1.7-1.7l2.1,2.1l-5.5,5.5l-2.1-2.1
			l1.5-1.5l-5.8-10.7l-1.7,1.7l-2.1-2.1l8.2-8.1l2.1,2.1l-1.7,1.7l10.9,5.7L277.9,152z M268.2,153.7l-4.8-2.7l2.6,4.9L268.2,153.7z"
			/>
	</g>
	<g class="st11">
		<path class="st12" d="M284.5,147.9l-2.5-1.6l1.5-2.2l-9.8-6.4l-1.5,2.2l3.4,2.3l-1.7,2.5l-5.9-3.9l8.8-13.4l5.9,3.9l-1.7,2.5
			l-3.4-2.3l-1.5,2.3l9.8,6.4l1.5-2.2l2.5,1.6L284.5,147.9z"/>
	</g>
	<path class="st9" d="M245.7,36.8c-1.9,1.8-5.7,7.1-7,9.5c-33.9-7.7-56.4,14.2-71.4,41.9c-2.1-0.2-10.4-0.2-13,0
		C167.8,50.9,204.7,20.2,245.7,36.8L245.7,36.8z"/>
</g>
</svg>
