<?xml version="1.0" encoding="utf-8"?>
<!-- Generator: Adobe Illustrator 28.0.0, SVG Export Plug-In . SVG Version: 6.00 Build 0)  -->
<svg version="1.1" id="Livello_1" xmlns="http://www.w3.org/2000/svg" xmlns:xlink="http://www.w3.org/1999/xlink" x="0px" y="0px"
	 viewBox="0 0 435 197.8" style="enable-background:new 0 0 435 197.8;" xml:space="preserve">
<style type="text/css">
	.st0{fill:#081A23;}
	.st1{display:none;}
	.st2{display:inline;fill:#A49997;}
	.st3{display:inline;fill:#7F5A52;}
	.st4{display:inline;fill:#936153;}
	.st5{display:inline;fill:#C2BCB9;}
	.st6{display:inline;fill:#E3D1CB;}
	.st7{display:inline;fill:#916D63;}
	.st8{fill:#FFFBF8;}
	.st9{fill:#0B9487;}
	.st10{fill:#C4E3EA;}
	.st11{fill:#7A9494;}
	.st12{fill:#086D79;}
	.st13{fill:#13838E;}
	.st14{display:inline;fill:#252332;}
	.st15{display:inline;fill:#D6DCE6;}
	.st16{fill:#13364A;}
	.st17{fill:#252332;}
	.st18{fill:#BC633A;}
	.st19{fill:none;}
</style>
<path class="st0" d="M242.7,89.3c-1.9-5.7-9.8-16.8-23.2-16.9c-11.2-0.1-20.3,8.2-23.2,16.9l0,0c0,0.1,0,0.2-0.1,0.2
	c-0.2,0.9-0.7,1.6-1.3,2.2c-2.9,3.5-9.2,4.6-13.2,4.6c1.1,0.6,2.3,1.2,3.4,1.7c2.5,1.1,5,2.2,7.5,3.4c1,0.5,1.9,0.9,2.8,1.5
	c0.4,0.3,0.9,0.7,1.1,1.2c0,0,0,0,0,0c5.2,15.4,15.1,15.5,23,16.1c10,0.8,19.1-9.4,22.1-15.5c2.1-4.3,20.5-8.5,20.5-8.5
	S243.9,92.9,242.7,89.3z"/>
<g>
	<g id="Background_00000130614323540915464890000003542657699921178803_" class="st1">
		<path class="st2" d="M282.4,58.2c0,36,0,36,0,72.1c-63.1,0-63.1,0-126.2,0c0-36,0-36,0-72.1C219.3,58.2,219.3,58.2,282.4,58.2z"/>
		<path class="st3" d="M255,72.8c-0.2,0.1-1.2,1.3-1.2,1.4c0.1,0.8,1.4-0.9,1.7-1.2c0,0,0.3,0,0.3,0c0.6,0.4,0.6,0.4,1.2,0.7
			c-2.2,1.2-2.8,2.8,0.6,0.4c0.6,0.2,0.6,0.2,1.1,0.5c-0.3,0.1-2.3,1.3-2.3,1.5c3.1,3.6,3.9,3.8,0.7-0.1c0.6-0.5,1.3-0.7,2-1
			c6.7,5.1,12.6,11,16.1,18.8c-7.3,16.6-26.3,28-44.2,28c4.6-3.3,7.8-8.2,10.7-12.9c-1.4,0.4-1.4,0.4-2.7,0.8c1.5-2.1,2.7-4.5,3.5-7
			c4.5-3.8,10-6.5,15.6-8.3c-5.2-0.9-10.3-2.2-15.1-4.3c-0.3-0.7-0.5-1.4-0.8-2.1c1.6-0.4,7.1,3.8,4.1,0.1c-0.3-0.4-1.6-1.6-2-1.9
			c-0.5-0.4-3.5-2-3.4-1.4c-1.8-3.3-5-6.7-8.1-8.7c0-0.4-1-0.8-0.1-0.7c1.3,0,4.9,3.4,2.6,0.3c-3-4-10.2-9.2-13.9-3.3
			c-2.3-0.1-4.5,0-6.8,0.5c-0.2-0.3-1.4,0.3-1.5,0.2c-0.1,0-2.1-1.3-2.6-1.4c7.7-4.1,14.8-5.8,23.6-5.3
			C240.7,66.9,249.1,69.4,255,72.8z"/>
		<path class="st4" d="M231,121.8c-3.9,0-7.9-0.6-11.6-1.8c-0.5-0.2-1.8-0.7-1.8-0.9c8.2,0.6,16.5-2.6,21.4-9.4
			c1.4-0.4,1.4-0.4,2.7-0.8C238.8,113.6,235.5,118.5,231,121.8z"/>
		<path class="st3" d="M200.8,81.6c-1.2,1.5-1.8,2.7-2.7,4.4c-1.8,0.8-4.4,3.3-4.6,3.5c-0.3,0.1-1.4,0-1.3,0.4
			c-1.2,0.2-1.5,0.1-1.6,0.1c2.9-4.7,5.9-7.8,10.1-11.3C200.6,80.4,199.8,82.1,200.8,81.6z"/>
		<path class="st4" d="M214.6,73c-5.4,1.1-10.4,4.3-13.8,8.6c-1,0.5-0.2-1.2-0.1-3c3.4-2.9,5.8-4.7,9.7-6.8c0.5,0.1,2.5,1.3,2.6,1.4
			C213.1,73.3,214.4,72.7,214.6,73z"/>
		<path class="st5" d="M168.7,91.5c0.3,0,1.6,0.1,1.7,0.3c-0.5,1.9-0.5,1.9-1,3.9c-0.2-1-0.2-1-0.4-2c-1.8,1.8-1.6-1.2-3.5-0.4
			c-0.3,0.1-0.6,0.7-0.6,0.7c-0.1,0-1-0.4,0.1-1.4C165.7,92.1,167.8,91.5,168.7,91.5z"/>
		<path class="st6" d="M264.9,110.5c1.3-0.1,2.8,0.6,2.8,1c-0.2,0.4-1-0.8-2.8-0.7c-4.4,0.4-2.3,7.5,1.8,4.3c1.6-1.2,2.3-4.8,2-2.8
			c-0.3,2.6-4.4,5.8-6.3,2.7C261.3,113.1,262.7,110.7,264.9,110.5z"/>
		<path class="st6" d="M181.5,70.5c1.4-0.1,3.2,1.3,4.1,2.3c-0.5,0.7-0.4,1.5-0.9,2.2c-1.1,1.6-3.1,0.7-2.7-1
			c0.3-1.5,3.3-1.1,0.7-0.4c-1.4,2.8,2.3,2.5,2.3-0.4c0-1.3-3.1-2.7-4.4-2.2C177.8,73.5,179.6,70.6,181.5,70.5z"/>
		<path class="st6" d="M182,71.6c0.3,0,0.6,0,0.9,0.2c-5.7,1.4-0.6,7,3,4.3c0.7,0.4-3,3-6.2-1.4C180.2,74.2,180.2,71.9,182,71.6z"/>
		<path class="st6" d="M264.8,111.9c1.9-0.3,2.2,2.8,0.5,3C263.3,115.1,263.2,112.2,264.8,111.9z"/>
		<path class="st4" d="M232.7,76.2c-3.4-2.2-7.3-3.5-11.3-3.7c3.8-5.9,10.9-0.8,13.9,3.3c2.3,3-1.4-0.3-2.6-0.3
			C231.7,75.4,232.6,75.8,232.7,76.2z"/>
		<path class="st7" d="M248.3,102.6c0.3,0,2,0.1,2.2,0.3c0,1.8,0,1.8-0.1,3.5c-3-3.6-2.3-0.6-3.1-0.2c-0.2,0.1-2.1-1.3-2.2-1.2
			c-0.2,0-0.8,1.6-1,1.6c-1.2-0.9-2.2-0.6-0.7-2C244.4,103.6,246.9,102.6,248.3,102.6z"/>
		<path class="st4" d="M242.2,88.2c-0.5-1-0.8-2.2-1.4-3.2c-0.1-0.6,2.9,1,3.4,1.4c0.4,0.3,1.7,1.5,2,1.9
			C249.3,92,243.8,87.8,242.2,88.2z"/>
		<path class="st5" d="M244.8,76.6c1.7-0.2,1.1,3,1.1,4.1c-2.1-2.3-4.1-1.4-4.3-1.7C242.2,78.4,244.3,76.7,244.8,76.6z"/>
		<path class="st4" d="M198.1,86.1c-0.4,0.7-1.3,3.1-1.4,3.2c-1.5,0.2-3,0.4-4.5,0.6c-0.1-0.4,1-0.2,1.3-0.4
			C193.7,89.4,196.3,86.9,198.1,86.1z"/>
		<path class="st2" d="M264.7,112.3c2-0.6,1.8,3-0.1,2.1C263.6,113.9,264.1,112.5,264.7,112.3z"/>
	</g>
	<g>
		<g>
			<g>
				<path class="st8" d="M199.5,87.2c0.3-0.6,0.9-1.6,0.9-1.6c3.3-5.5,8.9-9.4,15.3-10.5c0,0,0.4-0.1,0.9-0.1
					c16.7-2.1,30,14.3,23.2,30.1c-2.5,5.7-8,10.5-14,12.1C207.7,122.2,191,104.6,199.5,87.2z"/>
				<g>
					<path class="st9" d="M200.4,85.6"/>
					<path class="st9" d="M199.5,87.2"/>
					<path class="st10" d="M215.7,75.1c0.3,0,0.6-0.1,0.9-0.1"/>
					<g>
						<g>
							<path class="st0" d="M213.9,81.6c0.3-0.1,1.2-0.3,2-0.4c2.1-0.3,3.9-0.4,6-0.1c0.2,0,0.8,0.1,1,0.1c2.5,0.5,5.6,2.2,7.4,4
								c0.3,0.2,0.5,0.6,0.7,0.9c1,1.1,2.5,3.4,3.1,4.8c0.1,0.3,0.3,0.8,0.4,1.1c0.5,1.6,0.8,4.7,0.8,4.7s0,1.5-0.1,2.3
								c-0.1,0.4-0.2,0.7-0.2,1.1c-1.1,4.7-4.5,9-8.9,10.8c-2.5,1-5.4,1.4-8.1,1.2c-0.5,0-1-0.1-1.5-0.1c-4.3-0.7-8.7-4.1-10.8-7.9
								c-0.1-0.2-0.3-0.4-0.4-0.6c-1.4-2.8-1.6-4.8-1.6-4.8s0-1.4,0-1.2c0,0.2,0.1-4.3,0.9-6.3c0.1-0.3,0.4-1.1,0.4-1.1
								s0.2-0.4,0.2-0.6c0.1-0.1,1.4-2.2,1.7-2.5c0.7-0.8,2.1-2.2,2.1-2.2c0.2-0.2,0.3-0.3,0.4-0.3c2.3-1.7,2.5-1.9,2.7-2"/>
							<path class="st11" d="M208.9,84.6"/>
							<path class="st12" d="M232.2,90.8c-5.7-3.9-12.8-6.7-19.8-4.8c-0.2,0.1-1.3,0.6-1.4,0.6c-0.9-0.2,3.5-2.7,4.1-3
								c1-0.4,3-0.7,3.1-1.2C224.3,82,229.7,85.3,232.2,90.8z"/>
							<g>
								<path class="st13" d="M218.3,82.4c-0.2,0.6-2.1,0.8-3.1,1.2c-0.5,0.2-5,2.8-4.1,3c0.1,0,1.2-0.6,1.4-0.6
									c7-1.9,14,0.9,19.8,4.8c6.3,14.1-10.6,26-22,16.6C199.9,98.9,206.3,83.3,218.3,82.4z"/>
								<path class="st0" d="M218.5,89.7c7.7-0.8,10.5,9.1,4.4,12.6c-5.4,3.1-11.6-1.9-10-7.8C213.5,92.2,216.1,89.9,218.5,89.7z"/>
								<path class="st8" d="M210.3,86.7c3.7-0.5,1.7,5.2-1.6,3.9C207.1,90,208.4,87,210.3,86.7z"/>
								<path class="st8" d="M207.5,90.9c1-0.2,4.3,1.7,2.6,2.6C208.6,94.3,205.2,91.4,207.5,90.9z"/>
								<path class="st8" d="M207.2,93.8c0.5-0.1,3,0.8,2.4,1.8C208.7,97.1,204.9,94.2,207.2,93.8z"/>
							</g>
						</g>
					</g>
				</g>
			</g>
		</g>
	</g>
</g>
<g>
	<g id="Background_00000141445616188736495760000006368342174902563211_" class="st1">
		<path class="st14" d="M433.3-156.3c20.6,7,34.1,21,41.4,41.4c0.6,142.9,0.6,285.8,0,428.7c-7.5,20.4-21.1,33.5-41.4,40.9
			c-142.4,0.6-284.8,0.6-427.2,0c-20.9-6.9-34.2-20.1-42.4-40.4c-0.5-143.2-0.6-286.5,0-429.7c7.7-20.6,20.3-33.3,40.9-40.9
			C147.5-157,290.5-156.9,433.3-156.3z"/>
		<path class="st15" d="M6.1,354.7c-14.1-0.1-28.3,0-42.4,0c0-13.5,0-26.9,0-40.4C-28,334.6-14.8,347.8,6.1,354.7z"/>
		<path class="st15" d="M474.7,313.8c-0.1,13.6,0,27.3,0,40.9c-13.8,0-27.6-0.1-41.4,0C453.6,347.3,467.3,334.1,474.7,313.8z"/>
		<path class="st15" d="M433.3-156.3c13.8,0.1,27.6,0,41.4,0c0,13.8-0.1,27.6,0,41.4C467.4-135.3,454-149.3,433.3-156.3z"/>
		<path class="st15" d="M4.6-156.3c-20.6,7.6-33.3,20.4-40.9,40.9c0.1-13.6,0-27.3,0-40.9C-22.6-156.4-9-156.3,4.6-156.3z"/>
		<path class="st15" d="M22.9-150.8h391.7c28.3,3.3,50.4,24.8,54.1,53.1v394.2c-4.1,27.2-23.7,47.4-51.2,51.2H21.4
			c-26.8-2.8-47.4-23.5-51.2-50.2V-99.2C-25.7-127.2-4.9-146.7,22.9-150.8z"/>
		<path class="st15" d="M238.7,46.3c-14,26.7,2.8,57.6,31.9,62.1c-1.6,5.1-7.1,10.7-7,13.7c0,0,0,0,0,0
			c-17.1,23.5-33.7,35.1-64.1,28.9c-1.1,2.1-2.6,3.8-4.2,5.5c-2.4,0.6,4.3-5.6,6.5-10.7c11-25.6-7.3-54.3-34.4-57.6
			C182.2,60.5,204.8,38.6,238.7,46.3z"/>
	</g>
	<g>
		<g>
			<g>
				<path class="st16" d="M69.9,100.2c0,0.1,0,0.2,0,0.3c0.5,4.7,4.5,8.1,9.2,7.5c24.6-3,64.1-11,80.7-9.8
					c39.8,2.8,48.8,44.6,15.7,59.4c-17.4,7.8-73.4,8.9-96.3,12c-2,0.6,1.3,4.7-0.3,9.5c-2,5.9-7.4,6.1-13,4
					c-3.4-1.3-59.7-30.8-62.4-32.9c-3.3-2.7-4.6-6-2.7-9.7c1.4-2.8,44.9-36.6,53.4-44.9c0.7-0.7,1.4-1.2,2.3-1.6
					C62.4,91.5,68.8,94.8,69.9,100.2z"/>
			</g>
			<g>
				<path class="st16" d="M367.8,100.7c-2.8-5-1.2-10.9-2.1-11.5c-23,1.6-66.5,11.2-86.6,10c-45.3-2.8-48.8-53.2-7.7-62.9
					c13.3-3.1,52.1-4.7,69.7-6.5c5.2-0.5,10.5-0.8,15.7-1.5c0.9-0.9-2.5-16.6,9.5-15c3.6,0.5,53.4,30,62.3,32.9
					c6.6,4,8.5,6.8,3.9,12.7c-2.1,2.7-49.6,44.4-53.1,45.7C374.7,106.4,369.9,104.3,367.8,100.7z"/>
			</g>
		</g>
		<g>
			<path class="st17" d="M319,103.7c-6.4,42.2-44.2,88.2-88.1,93.3c-29.8,3.5-53-4.5-78.1-19.5c-1.6-0.9-3.4-1.8-4.7-3
				c5.9-1.1,15.3-1.3,20.7-2.5c62.4,34,119.1-2.7,136.7-65.9C310,105.4,314.6,104.5,319,103.7z"/>
			<path class="st17" d="M289.6,22.3c0,0.3,0.1,0.9-0.2,1c-1.8,0.4-15.6,0.8-20.7,2c-60.8-33.5-119.5,4.7-135.2,66.4
				c-4.6,0.8-9.4,1.6-14,2.5c6.2-43,47.6-90.1,92.1-93.8C254.6-3.3,281.8,20.2,289.6,22.3z"/>
			<path class="st18" d="M305.6,106.2c-17.7,63.2-74.3,99.8-136.7,65.9c8-1.8,17.5-6.4,23.5-12c39.8,19.3,80.6-13.9,92.3-51.4
				C291.5,107.9,298.7,107.3,305.6,106.2z"/>
			<path class="st18" d="M268.6,25.3c-8,2.8-16.7,5.5-23,11.5c-41-16.6-77.9,14.1-91.3,51.4c-3.2,0.2-15.5,2.6-21,3.5
				C149.2,30.1,207.8-8.2,268.6,25.3z"/>
			<path class="st17" d="M284.6,108.7c-11.7,37.5-52.5,70.7-92.3,51.4c1.6-1.5,2.1-2.6,3-3.5c1.7-1.7,3.2-3.4,4.2-5.5
				c30.4,6.1,47.1-5.4,64.1-28.9c3-4.2,5.7-8.5,8.2-13C276.2,109.4,280.3,109.1,284.6,108.7z"/>
			<g>
				<path class="st19" d="M245.7,35.9c-1.9,1.8-5.7,7.1-7,9.5c-33.9-7.7-56.5,14.2-71.4,41.9c-2-0.3-10.4-0.2-13,0
					C167.8,49.9,204.7,19.3,245.7,35.9z"/>
				<path class="st17" d="M164.3,67.2l-5.4,8.4l-3.6-2.3l0.8-1.3l-7.7-5l-0.8,1.3l-3.6-2.3l5.9-9.1c1.1-1.8,2.1-3.1,3-3.9
					c0.8-0.8,1.7-1.3,2.7-1.4c1-0.1,1.9,0.1,2.8,0.6c0.8,0.5,1.3,1.2,1.5,2.1c0.2,0.9,0.1,1.7-0.2,2.6c1-0.8,2-1.3,3-1.5
					c1-0.1,2,0.1,2.8,0.6c1,0.6,1.6,1.5,1.9,2.6c0.3,1.1,0.2,2.3-0.3,3.5C166.6,63.4,165.7,65.1,164.3,67.2z M151.9,61.1l2.7,1.8
					l0.8-1.3c0.6-0.9,0.8-1.5,0.7-1.9c-0.1-0.4-0.3-0.8-0.7-1c-0.3-0.2-0.7-0.3-1.2-0.3c-0.4,0.1-1,0.6-1.7,1.7L151.9,61.1z
					 M157.3,64.5l2.9,1.9l0.8-1.3c0.5-0.8,0.8-1.5,0.8-2c0-0.5-0.2-0.9-0.8-1.3c-0.5-0.3-1-0.4-1.4-0.2c-0.4,0.2-1,0.7-1.6,1.6
					L157.3,64.5z"/>
				<path class="st17" d="M183.8,45l-12.1,11.7l-2.9-3l1.1-1.1l-6.4-6.6l-1.1,1.1l-2.9-3l7.3-7l2.9,3l-1.2,1.2l6.4,6.6l3-2.9l-2-2
					l3-2.9L183.8,45z"/>
				<path class="st17" d="M194.2,38.5l-8.5,5.4l-2.3-3.6l1.4-0.9l-4.9-7.8l-1.4,0.9l-2.3-3.6l8.5-5.4l2.3,3.6l-1.4,0.9l4.9,7.8
					l1.4-0.9L194.2,38.5z"/>
				<path class="st17" d="M203.2,34.6l-6.9,2.1l-1.2-4l1.5-0.4l-2.7-8.8l-1.5,0.4l-1.2-4l8-2.4l8.8,7l-1.4-4.8l-1.4,0.4l-1.2-4
					l6.8-2.1l1.2,4l-1.5,0.4l3.9,13.1l-5.6,1.7l-10.2-8.1l1.8,6l1.5-0.5L203.2,34.6z"/>
				<path class="st17" d="M228.1,31.5l-9.5-0.9l0.4-4.2l1.3,0.1l0.9-9.2l-1.4-0.1l0.4-4.2l9.6,1l-0.4,4.2l-1.4-0.1l-0.9,9.2l1.4,0.1
					L228.1,31.5z M239.1,32.6l-9.1-0.9l0.4-4.2l0.8,0.1l-3.4-5.4l4.9-3.7l-1.4-0.1l0.4-4.2l8.7,0.9l-0.4,4.2l-1.4-0.1l-3.9,3
					l3.9,6.3l0.9,0.1L239.1,32.6z"/>
			</g>
		</g>
	</g>
</g>
<g>
	<path class="st19" d="M169.2,171.3c9.2,2.6,41.1,27,88,1.1c29.8-14.4,47.7-60.9,48.1-67.4"/>
	<path class="st17" d="M231,174.7l4.8,0.8c-0.1,1.9-0.7,3.6-1.9,5c-1.2,1.4-3,2.4-5.5,2.8c-3.3,0.6-6,0.1-7.9-1.3
		c-1.9-1.5-3.1-3.4-3.5-5.9c-0.4-2.5,0-4.8,1.3-6.8c1.3-2,3.2-3.3,5.7-3.7c2-0.3,3.8-0.1,5.3,0.7l-0.2-1.2l4.2-0.7l1.1,6.4l-4.3,0.7
		c-0.4-0.8-0.8-1.3-1.5-1.7c-0.6-0.4-1.3-0.5-1.9-0.4c-1.9,0.3-2.6,2.1-2,5.4c0.6,3.3,1.8,4.7,3.8,4.4
		C230.2,178.7,231,177.3,231,174.7z"/>
	<path class="st17" d="M251.7,175.3l-8.3,4.1l-1.9-3.8l1.2-0.6l-4.1-8.3l-1.2,0.6l-1.9-3.8l8.4-4.1l1.9,3.8l-1,0.5l1.2,2.4l3.7-1.8
		l-1.2-2.4l-1,0.5l-1.9-3.8l8.3-4.1l1.9,3.8l-1.2,0.6l4.1,8.3l1.2-0.6l1.9,3.8l-8.3,4.1l-1.9-3.8l1-0.5l-1.3-2.6l-3.7,1.8l1.3,2.6
		l1-0.5L251.7,175.3z"/>
	<path class="st17" d="M272.3,161.8l-4.9,4.9l-3-3l1-1l-4.2-8.9l-1,1l-3-3l9-9l3,3l-1,1l8.9,4.1l0.9-0.9l3,3l-6.5,6.5l-2.7-2.7
		l1.1-1.1l-2-1.1l-3.2,3.2l1,2.1l1-1L272.3,161.8z M264.1,151.3l2.3,4.6l2.2-2.2L264.1,151.3z"/>
	<path class="st17" d="M290.5,138.8l-5.5,8.3l-3.5-2.3l0.8-1.3l-7.7-5.1l-1.1,1.7l2.7,1.8l-1.8,2.8l-6.2-4.1l9.7-14.6l6.2,4.1
		l-1.8,2.8l-2.7-1.8l-1.1,1.7l7.7,5.1l0.9-1.3L290.5,138.8z"/>
</g>
<path class="st17" d="M245.7,36.8c-1.9,1.8-5.7,7.1-7,9.5c-33.9-7.7-56.5,14.2-71.4,41.9c-2-0.3-10.4-0.2-13,0
	C167.8,50.9,204.7,20.2,245.7,36.8z"/>
<g>
</g>
<g>
</g>
<g>
</g>
<g>
</g>
<g>
</g>
<g>
</g>
</svg>
